<svg width="17" height="16" viewBox="0 0 17 16" fill="none" xmlns="http://www.w3.org/2000/svg">
<path fill-rule="evenodd" clip-rule="evenodd" d="M6.76109 10.9814C7.25546 11.3695 7.85798 11.6041 8.49912 11.6041C10.1985 11.6041 11.5812 9.98873 11.5812 8.0033C11.5812 7.25426 11.3804 6.55033 11.0482 5.97275L10.2063 6.95644C10.3453 7.26328 10.4225 7.62427 10.4225 8.0033C10.4225 9.23968 9.55739 10.2504 8.49912 10.2504C8.17469 10.2504 7.8657 10.1602 7.60307 9.99775L6.76109 10.9814ZM13.5896 3.00364C14.7097 4.1949 15.6598 5.80128 16.3705 7.73256C16.4323 7.90403 16.4323 8.10257 16.3705 8.26502C14.7174 12.7593 11.7743 15.4486 8.49912 15.4486H8.4914C7.00055 15.4486 5.5715 14.8801 4.31239 13.8423L2.81382 15.593C2.69795 15.7284 2.55118 15.7916 2.40441 15.7916C2.25765 15.7916 2.10316 15.7284 1.99501 15.593C1.8019 15.3674 1.771 15.0064 1.92549 14.7447L1.94866 14.7086L13.3733 1.36115L13.3733 1.36115C13.3888 1.3431 13.4042 1.32505 13.412 1.307L13.412 1.307C13.4274 1.28895 13.4429 1.2709 13.4506 1.25286L14.1767 0.404538C14.4084 0.142823 14.7715 0.142823 14.9955 0.404538C15.2272 0.666253 15.2272 1.09944 14.9955 1.36115L13.5896 3.00364ZM5.41137 8.00682C5.41137 8.24146 5.43454 8.4761 5.46544 8.6927L2.60734 12.0318C1.83488 10.985 1.16284 9.72151 0.629844 8.26854C0.568047 8.10609 0.568047 7.90755 0.629844 7.73608C2.28291 3.2418 5.22598 0.561477 8.49348 0.561477H8.5012C9.60582 0.561477 10.6795 0.868316 11.6683 1.44589L9.08827 4.46013C8.90288 4.42403 8.70204 4.39696 8.5012 4.39696C6.79407 4.39696 5.41137 6.01237 5.41137 8.00682Z" fill="#3A3A3A"/>
</svg>
