<svg width="17" height="17" viewBox="0 0 17 17" fill="none" xmlns="http://www.w3.org/2000/svg">
<path fill-rule="evenodd" clip-rule="evenodd" d="M5.41024 8.49992C5.41024 10.5444 6.79276 12.2078 8.49967 12.2078C10.1989 12.2078 11.5814 10.5444 11.5814 8.49992C11.5814 6.44618 10.1989 4.78275 8.49967 4.78275C6.79276 4.78275 5.41024 6.44618 5.41024 8.49992ZM13.0411 2.79406C14.3928 4.0579 15.5436 5.90719 16.37 8.22113C16.4318 8.3977 16.4318 8.60214 16.37 8.76941C14.7172 13.3973 11.7745 16.1666 8.49967 16.1666H8.49195C5.22488 16.1666 2.28219 13.3973 0.629349 8.76941C0.567561 8.60214 0.567561 8.3977 0.629349 8.22113C2.28219 3.59325 5.22488 0.833252 8.49195 0.833252H8.49967C10.1371 0.833252 11.6895 1.52093 13.0411 2.79406ZM8.5006 10.8118C9.55873 10.8118 10.4238 9.77101 10.4238 8.49787C10.4238 7.21545 9.55873 6.17464 8.5006 6.17464C8.40792 6.17464 8.31524 6.18393 8.23028 6.20252C8.19938 7.22474 7.50426 8.04252 6.64694 8.04252H6.60833C6.58515 8.19121 6.56971 8.33989 6.56971 8.49787C6.56971 9.77101 7.43475 10.8118 8.5006 10.8118Z" fill="#130F26"/>
</svg>
