<svg width="8" height="8" viewBox="0 0 8 8" fill="none" xmlns="http://www.w3.org/2000/svg">
<path d="M0.333329 1.5836H1.24533C1.42533 2.24583 2.10813 2.63676 2.77041 2.45678C3.19577 2.34118 3.52805 2.00892 3.64366 1.5836H7.66667C7.85076 1.5836 8 1.43438 8 1.2503C8 1.06622 7.85076 0.917001 7.66667 0.917001H3.64366C3.46366 0.25476 2.78086 -0.136176 2.11858 0.0438086C1.69322 0.159408 1.36094 0.491662 1.24533 0.916985H0.333329C0.149235 0.916985 0 1.06621 0 1.25029C0 1.43436 0.149235 1.5836 0.333329 1.5836Z" fill="#374957"/>
<path d="M7.66667 3.66731H6.75467C6.57503 3.00518 5.8926 2.61403 5.23042 2.79364C4.80471 2.90911 4.47215 3.24163 4.35666 3.66731H0.333329C0.149235 3.66731 0 3.81654 0 4.00061C0 4.18469 0.149235 4.33391 0.333329 4.33391H4.35666C4.53631 4.99605 5.21873 5.3872 5.88092 5.20759C6.30662 5.09212 6.63918 4.7596 6.75467 4.33391H7.66667C7.85076 4.33391 8 4.18469 8 4.00061C8 3.81654 7.85076 3.66731 7.66667 3.66731Z" fill="#374957"/>
<path d="M7.66667 6.41601H3.64366C3.46366 5.75378 2.78086 5.36285 2.11858 5.54283C1.69322 5.65843 1.36094 5.99068 1.24533 6.41601H0.333329C0.149235 6.41601 0 6.56523 0 6.74931C0 6.93338 0.149235 7.08261 0.333329 7.08261H1.24533C1.42533 7.74483 2.10813 8.13577 2.77041 7.95578C3.19577 7.84018 3.52805 7.50793 3.64366 7.08261H7.66667C7.85076 7.08261 8 6.93338 8 6.74931C8 6.56523 7.85076 6.41601 7.66667 6.41601Z" fill="#374957"/>
</svg>
