<svg width="20" height="17" viewBox="0 0 20 17" fill="none" xmlns="http://www.w3.org/2000/svg">
<path fill-rule="evenodd" clip-rule="evenodd" d="M6.71883 3.1266C6.71883 4.85405 5.21551 6.2542 3.35942 6.2542C1.50441 6.2542 0 4.85405 0 3.1266C0 1.40015 1.50441 0 3.35942 0C5.21551 0 6.71883 1.40015 6.71883 3.1266ZM18.066 1.75675C18.8779 1.75675 19.5378 2.37096 19.5378 3.1266C19.5378 3.88324 18.8779 4.49745 18.066 4.49745H11.6424C10.8294 4.49745 10.1694 3.88324 10.1694 3.1266C10.1694 2.37096 10.8294 1.75675 11.6424 1.75675H18.066ZM1.47293 11.9922H7.89653C8.70952 11.9922 9.36946 12.6064 9.36946 13.363C9.36946 14.1187 8.70952 14.7339 7.89653 14.7339H1.47293C0.659944 14.7339 0 14.1187 0 13.363C0 12.6064 0.659944 11.9922 1.47293 11.9922ZM16.1785 16.4521C18.0346 16.4521 19.5379 15.052 19.5379 13.3255C19.5379 11.5981 18.0346 10.1979 16.1785 10.1979C14.3235 10.1979 12.8191 11.5981 12.8191 13.3255C12.8191 15.052 14.3235 16.4521 16.1785 16.4521Z" fill="#130F26"/>
</svg>
