<svg width="10" height="15" viewBox="0 0 10 15" fill="none" xmlns="http://www.w3.org/2000/svg">
<path d="M7.98553 5.02513L3.36034 0.439127C3.07654 0.157865 2.69168 -9.37265e-05 2.29042 4.17235e-08C1.88916 9.38099e-05 1.50438 0.158232 1.22071 0.439627C0.937046 0.721022 0.777738 1.10262 0.777832 1.50048C0.777927 1.89834 0.937417 2.27986 1.22122 2.56113L5.8464 7.14613C5.89337 7.19257 5.93062 7.24775 5.95605 7.30849C5.98147 7.36924 5.99455 7.43436 5.99455 7.50013C5.99455 7.5659 5.98147 7.63102 5.95605 7.69176C5.93062 7.75251 5.89337 7.80768 5.8464 7.85413L1.22122 12.4391C0.937417 12.7204 0.777927 13.1019 0.777832 13.4998C0.777738 13.8976 0.937046 14.2792 1.22071 14.5606C1.50438 14.842 1.88916 15.0002 2.29042 15.0003C2.69168 15.0003 3.07654 14.8424 3.36034 14.5611L7.98553 9.97513C8.64636 9.31809 9.01746 8.42804 9.01746 7.50013C9.01746 6.57221 8.64636 5.68216 7.98553 5.02513Z" fill="#374957"/>
</svg>
