<svg width="13" height="13" viewBox="0 0 13 13" fill="none" xmlns="http://www.w3.org/2000/svg">
<g clip-path="url(#clip0_622_8936)">
<path d="M0.634833 10.3564C0.228476 10.7626 0.000122714 11.3136 0 11.8882L0 13.0002H1.11204C1.68663 13.0001 2.23764 12.7717 2.64387 12.3654L9.87133 5.13794L7.86229 3.12891L0.634833 10.3564Z" fill="#05878F"/>
<path d="M12.5366 0.46338C12.4047 0.331341 12.2481 0.226594 12.0757 0.155127C11.9032 0.0836599 11.7184 0.046875 11.5318 0.046875C11.3452 0.046875 11.1604 0.0836599 10.988 0.155127C10.8155 0.226594 10.6589 0.331341 10.527 0.46338L8.62793 2.36301L10.637 4.37205L12.5366 2.47296C12.6686 2.34106 12.7734 2.18443 12.8449 2.01202C12.9163 1.83961 12.9531 1.65481 12.9531 1.46817C12.9531 1.28154 12.9163 1.09673 12.8449 0.924324C12.7734 0.751915 12.6686 0.595282 12.5366 0.46338Z" fill="#05878F"/>
</g>
<defs>
<clipPath id="clip0_622_8936">
<rect width="13" height="13" fill="white"/>
</clipPath>
</defs>
</svg>
